# xmcd
#
# Track frame offsets:
#	150
#	14885
#	28507
#	37685
#	53115
#	71425
#	89560
#
# Disc length: 1422
#
# Revision: 2
# Processed by: cddbd v1.5.1PL0 Copyright (c) Steve Scherf et al.
# Submitted via: DiscPlay 4.0.4
# Normalized: r1:DSETVAR1
#
DISCID=54058c07
DTITLE=Various Artist - Twang This! Fall/Winter 1997
DYEAR=1900
DGENRE=
TTITLE0=Sherrie Austin - I Want To Fall In Love (So Hard It Hurts)
TTITLE1=Jason Sellers - That Does It
TTITLE2=Sara Evans - Shame About That
TTITLE3=Lee Roy Parnell - Better Word For Love
TTITLE4=Diamond Rio - How Your Love Makes Me Feel
TTITLE5=The Thompson Brothers - Back On The Farm
TTITLE6=Blackhawk - WIll You Be There (In The Morning)
EXTD=
EXTT0=
EXTT1=
EXTT2=
EXTT3=
EXTT4=
EXTT5=
EXTT6=
PLAYORDER=
